<?xml version="1.0" encoding="UTF-8"?>
<svg width="800" height="600" xmlns="http://www.w3.org/2000/svg">
  <!-- 天空背景 -->
  <rect x="0" y="0" width="800" height="450" fill="#87CEEB"/>
  
  <!-- 太阳 -->
  <circle cx="650" cy="100" r="60" fill="#FFD700"/>
  
  <!-- 房子主体 -->
  <rect x="200" y="300" width="200" height="150" fill="#8B4513"/>
  
  <!-- 屋顶（用多条线填充三角形） -->
  <line x1="200" y1="300" x2="300" y2="200" stroke="#DC143C"/>
  <line x1="201" y1="300" x2="300" y2="201" stroke="#DC143C"/>
  <line x1="202" y1="300" x2="300" y2="202" stroke="#DC143C"/>
  <line x1="203" y1="300" x2="300" y2="203" stroke="#DC143C"/>
  <line x1="204" y1="300" x2="300" y2="204" stroke="#DC143C"/>
  <line x1="205" y1="300" x2="300" y2="205" stroke="#DC143C"/>
  <line x1="206" y1="300" x2="300" y2="206" stroke="#DC143C"/>
  <line x1="207" y1="300" x2="300" y2="207" stroke="#DC143C"/>
  <line x1="208" y1="300" x2="300" y2="208" stroke="#DC143C"/>
  <line x1="209" y1="300" x2="300" y2="209" stroke="#DC143C"/>
  <line x1="210" y1="300" x2="300" y2="210" stroke="#DC143C"/>
  <line x1="211" y1="300" x2="300" y2="211" stroke="#DC143C"/>
  <line x1="212" y1="300" x2="300" y2="212" stroke="#DC143C"/>
  <line x1="213" y1="300" x2="300" y2="213" stroke="#DC143C"/>
  <line x1="214" y1="300" x2="300" y2="214" stroke="#DC143C"/>
  <line x1="215" y1="300" x2="300" y2="215" stroke="#DC143C"/>
  <line x1="216" y1="300" x2="300" y2="216" stroke="#DC143C"/>
  <line x1="217" y1="300" x2="300" y2="217" stroke="#DC143C"/>
  <line x1="218" y1="300" x2="300" y2="218" stroke="#DC143C"/>
  <line x1="219" y1="300" x2="300" y2="219" stroke="#DC143C"/>
  <line x1="220" y1="300" x2="300" y2="220" stroke="#DC143C"/>
  <line x1="221" y1="300" x2="300" y2="221" stroke="#DC143C"/>
  <line x1="222" y1="300" x2="300" y2="222" stroke="#DC143C"/>
  <line x1="223" y1="300" x2="300" y2="223" stroke="#DC143C"/>
  <line x1="224" y1="300" x2="300" y2="224" stroke="#DC143C"/>
  <line x1="225" y1="300" x2="300" y2="225" stroke="#DC143C"/>
  <line x1="226" y1="300" x2="300" y2="226" stroke="#DC143C"/>
  <line x1="227" y1="300" x2="300" y2="227" stroke="#DC143C"/>
  <line x1="228" y1="300" x2="300" y2="228" stroke="#DC143C"/>
  <line x1="229" y1="300" x2="300" y2="229" stroke="#DC143C"/>
  <line x1="230" y1="300" x2="300" y2="230" stroke="#DC143C"/>
  <line x1="231" y1="300" x2="300" y2="231" stroke="#DC143C"/>
  <line x1="232" y1="300" x2="300" y2="232" stroke="#DC143C"/>
  <line x1="233" y1="300" x2="300" y2="233" stroke="#DC143C"/>
  <line x1="234" y1="300" x2="300" y2="234" stroke="#DC143C"/>
  <line x1="235" y1="300" x2="300" y2="235" stroke="#DC143C"/>
  <line x1="236" y1="300" x2="300" y2="236" stroke="#DC143C"/>
  <line x1="237" y1="300" x2="300" y2="237" stroke="#DC143C"/>
  <line x1="238" y1="300" x2="300" y2="238" stroke="#DC143C"/>
  <line x1="239" y1="300" x2="300" y2="239" stroke="#DC143C"/>
  <line x1="240" y1="300" x2="300" y2="240" stroke="#DC143C"/>
  <line x1="241" y1="300" x2="300" y2="241" stroke="#DC143C"/>
  <line x1="242" y1="300" x2="300" y2="242" stroke="#DC143C"/>
  <line x1="243" y1="300" x2="300" y2="243" stroke="#DC143C"/>
  <line x1="244" y1="300" x2="300" y2="244" stroke="#DC143C"/>
  <line x1="245" y1="300" x2="300" y2="245" stroke="#DC143C"/>
  <line x1="246" y1="300" x2="300" y2="246" stroke="#DC143C"/>
  <line x1="247" y1="300" x2="300" y2="247" stroke="#DC143C"/>
  <line x1="248" y1="300" x2="300" y2="248" stroke="#DC143C"/>
  <line x1="249" y1="300" x2="300" y2="249" stroke="#DC143C"/>
  <line x1="250" y1="300" x2="300" y2="250" stroke="#DC143C"/>
  <line x1="251" y1="300" x2="300" y2="251" stroke="#DC143C"/>
  <line x1="252" y1="300" x2="300" y2="252" stroke="#DC143C"/>
  <line x1="253" y1="300" x2="300" y2="253" stroke="#DC143C"/>
  <line x1="254" y1="300" x2="300" y2="254" stroke="#DC143C"/>
  <line x1="255" y1="300" x2="300" y2="255" stroke="#DC143C"/>
  <line x1="256" y1="300" x2="300" y2="256" stroke="#DC143C"/>
  <line x1="257" y1="300" x2="300" y2="257" stroke="#DC143C"/>
  <line x1="258" y1="300" x2="300" y2="258" stroke="#DC143C"/>
  <line x1="259" y1="300" x2="300" y2="259" stroke="#DC143C"/>
  <line x1="260" y1="300" x2="300" y2="260" stroke="#DC143C"/>
  <line x1="261" y1="300" x2="300" y2="261" stroke="#DC143C"/>
  <line x1="262" y1="300" x2="300" y2="262" stroke="#DC143C"/>
  <line x1="263" y1="300" x2="300" y2="263" stroke="#DC143C"/>
  <line x1="264" y1="300" x2="300" y2="264" stroke="#DC143C"/>
  <line x1="265" y1="300" x2="300" y2="265" stroke="#DC143C"/>
  <line x1="266" y1="300" x2="300" y2="266" stroke="#DC143C"/>
  <line x1="267" y1="300" x2="300" y2="267" stroke="#DC143C"/>
  <line x1="268" y1="300" x2="300" y2="268" stroke="#DC143C"/>
  <line x1="269" y1="300" x2="300" y2="269" stroke="#DC143C"/>
  <line x1="270" y1="300" x2="300" y2="270" stroke="#DC143C"/>
  <line x1="271" y1="300" x2="300" y2="271" stroke="#DC143C"/>
  <line x1="272" y1="300" x2="300" y2="272" stroke="#DC143C"/>
  <line x1="273" y1="300" x2="300" y2="273" stroke="#DC143C"/>
  <line x1="274" y1="300" x2="300" y2="274" stroke="#DC143C"/>
  <line x1="275" y1="300" x2="300" y2="275" stroke="#DC143C"/>
  <line x1="276" y1="300" x2="300" y2="276" stroke="#DC143C"/>
  <line x1="277" y1="300" x2="300" y2="277" stroke="#DC143C"/>
  <line x1="278" y1="300" x2="300" y2="278" stroke="#DC143C"/>
  <line x1="279" y1="300" x2="300" y2="279" stroke="#DC143C"/>
  <line x1="280" y1="300" x2="300" y2="280" stroke="#DC143C"/>
  <line x1="281" y1="300" x2="300" y2="281" stroke="#DC143C"/>
  <line x1="282" y1="300" x2="300" y2="282" stroke="#DC143C"/>
  <line x1="283" y1="300" x2="300" y2="283" stroke="#DC143C"/>
  <line x1="284" y1="300" x2="300" y2="284" stroke="#DC143C"/>
  <line x1="285" y1="300" x2="300" y2="285" stroke="#DC143C"/>
  <line x1="286" y1="300" x2="300" y2="286" stroke="#DC143C"/>
  <line x1="287" y1="300" x2="300" y2="287" stroke="#DC143C"/>
  <line x1="288" y1="300" x2="300" y2="288" stroke="#DC143C"/>
  <line x1="289" y1="300" x2="300" y2="289" stroke="#DC143C"/>
  <line x1="290" y1="300" x2="300" y2="290" stroke="#DC143C"/>
  <line x1="291" y1="300" x2="300" y2="291" stroke="#DC143C"/>
  <line x1="292" y1="300" x2="300" y2="292" stroke="#DC143C"/>
  <line x1="293" y1="300" x2="300" y2="293" stroke="#DC143C"/>
  <line x1="294" y1="300" x2="300" y2="294" stroke="#DC143C"/>
  <line x1="295" y1="300" x2="300" y2="295" stroke="#DC143C"/>
  <line x1="296" y1="300" x2="300" y2="296" stroke="#DC143C"/>
  <line x1="297" y1="300" x2="300" y2="297" stroke="#DC143C"/>
  <line x1="298" y1="300" x2="300" y2="298" stroke="#DC143C"/>
  <line x1="299" y1="300" x2="300" y2="299" stroke="#DC143C"/>
  
  <line x1="300" y1="200" x2="400" y2="300" stroke="#DC143C"/>
  <line x1="300" y1="201" x2="399" y2="300" stroke="#DC143C"/>
  <line x1="300" y1="202" x2="398" y2="300" stroke="#DC143C"/>
  <line x1="300" y1="203" x2="397" y2="300" stroke="#DC143C"/>
  <line x1="300" y1="204" x2="396" y2="300" stroke="#DC143C"/>
  <line x1="300" y1="205" x2="395" y2="300" stroke="#DC143C"/>
  <line x1="300" y1="206" x2="394" y2="300" stroke="#DC143C"/>
  <line x1="300" y1="207" x2="393" y2="300" stroke="#DC143C"/>
  <line x1="300" y1="208" x2="392" y2="300" stroke="#DC143C"/>
  <line x1="300" y1="209" x2="391" y2="300" stroke="#DC143C"/>
  <line x1="300" y1="210" x2="390" y2="300" stroke="#DC143C"/>
  <line x1="300" y1="211" x2="389" y2="300" stroke="#DC143C"/>
  <line x1="300" y1="212" x2="388" y2="300" stroke="#DC143C"/>
  <line x1="300" y1="213" x2="387" y2="300" stroke="#DC143C"/>
  <line x1="300" y1="214" x2="386" y2="300" stroke="#DC143C"/>
  <line x1="300" y1="215" x2="385" y2="300" stroke="#DC143C"/>
  <line x1="300" y1="216" x2="384" y2="300" stroke="#DC143C"/>
  <line x1="300" y1="217" x2="383" y2="300" stroke="#DC143C"/>
  <line x1="300" y1="218" x2="382" y2="300" stroke="#DC143C"/>
  <line x1="300" y1="219" x2="381" y2="300" stroke="#DC143C"/>
  <line x1="300" y1="220" x2="380" y2="300" stroke="#DC143C"/>
  <line x1="300" y1="221" x2="379" y2="300" stroke="#DC143C"/>
  <line x1="300" y1="222" x2="378" y2="300" stroke="#DC143C"/>
  <line x1="300" y1="223" x2="377" y2="300" stroke="#DC143C"/>
  <line x1="300" y1="224" x2="376" y2="300" stroke="#DC143C"/>
  <line x1="300" y1="225" x2="375" y2="300" stroke="#DC143C"/>
  <line x1="300" y1="226" x2="374" y2="300" stroke="#DC143C"/>
  <line x1="300" y1="227" x2="373" y2="300" stroke="#DC143C"/>
  <line x1="300" y1="228" x2="372" y2="300" stroke="#DC143C"/>
  <line x1="300" y1="229" x2="371" y2="300" stroke="#DC143C"/>
  <line x1="300" y1="230" x2="370" y2="300" stroke="#DC143C"/>
  <line x1="300" y1="231" x2="369" y2="300" stroke="#DC143C"/>
  <line x1="300" y1="232" x2="368" y2="300" stroke="#DC143C"/>
  <line x1="300" y1="233" x2="367" y2="300" stroke="#DC143C"/>
  <line x1="300" y1="234" x2="366" y2="300" stroke="#DC143C"/>
  <line x1="300" y1="235" x2="365" y2="300" stroke="#DC143C"/>
  <line x1="300" y1="236" x2="364" y2="300" stroke="#DC143C"/>
  <line x1="300" y1="237" x2="363" y2="300" stroke="#DC143C"/>
  <line x1="300" y1="238" x2="362" y2="300" stroke="#DC143C"/>
  <line x1="300" y1="239" x2="361" y2="300" stroke="#DC143C"/>
  <line x1="300" y1="240" x2="360" y2="300" stroke="#DC143C"/>
  <line x1="300" y1="241" x2="359" y2="300" stroke="#DC143C"/>
  <line x1="300" y1="242" x2="358" y2="300" stroke="#DC143C"/>
  <line x1="300" y1="243" x2="357" y2="300" stroke="#DC143C"/>
  <line x1="300" y1="244" x2="356" y2="300" stroke="#DC143C"/>
  <line x1="300" y1="245" x2="355" y2="300" stroke="#DC143C"/>
  <line x1="300" y1="246" x2="354" y2="300" stroke="#DC143C"/>
  <line x1="300" y1="247" x2="353" y2="300" stroke="#DC143C"/>
  <line x1="300" y1="248" x2="352" y2="300" stroke="#DC143C"/>
  <line x1="300" y1="249" x2="351" y2="300" stroke="#DC143C"/>
  <line x1="300" y1="250" x2="350" y2="300" stroke="#DC143C"/>
  <line x1="300" y1="251" x2="349" y2="300" stroke="#DC143C"/>
  <line x1="300" y1="252" x2="348" y2="300" stroke="#DC143C"/>
  <line x1="300" y1="253" x2="347" y2="300" stroke="#DC143C"/>
  <line x1="300" y1="254" x2="346" y2="300" stroke="#DC143C"/>
  <line x1="300" y1="255" x2="345" y2="300" stroke="#DC143C"/>
  <line x1="300" y1="256" x2="344" y2="300" stroke="#DC143C"/>
  <line x1="300" y1="257" x2="343" y2="300" stroke="#DC143C"/>
  <line x1="300" y1="258" x2="342" y2="300" stroke="#DC143C"/>
  <line x1="300" y1="259" x2="341" y2="300" stroke="#DC143C"/>
  <line x1="300" y1="260" x2="340" y2="300" stroke="#DC143C"/>
  <line x1="300" y1="261" x2="339" y2="300" stroke="#DC143C"/>
  <line x1="300" y1="262" x2="338" y2="300" stroke="#DC143C"/>
  <line x1="300" y1="263" x2="337" y2="300" stroke="#DC143C"/>
  <line x1="300" y1="264" x2="336" y2="300" stroke="#DC143C"/>
  <line x1="300" y1="265" x2="335" y2="300" stroke="#DC143C"/>
  <line x1="300" y1="266" x2="334" y2="300" stroke="#DC143C"/>
  <line x1="300" y1="267" x2="333" y2="300" stroke="#DC143C"/>
  <line x1="300" y1="268" x2="332" y2="300" stroke="#DC143C"/>
  <line x1="300" y1="269" x2="331" y2="300" stroke="#DC143C"/>
  <line x1="300" y1="270" x2="330" y2="300" stroke="#DC143C"/>
  <line x1="300" y1="271" x2="329" y2="300" stroke="#DC143C"/>
  <line x1="300" y1="272" x2="328" y2="300" stroke="#DC143C"/>
  <line x1="300" y1="273" x2="327" y2="300" stroke="#DC143C"/>
  <line x1="300" y1="274" x2="326" y2="300" stroke="#DC143C"/>
  <line x1="300" y1="275" x2="325" y2="300" stroke="#DC143C"/>
  <line x1="300" y1="276" x2="324" y2="300" stroke="#DC143C"/>
  <line x1="300" y1="277" x2="323" y2="300" stroke="#DC143C"/>
  <line x1="300" y1="278" x2="322" y2="300" stroke="#DC143C"/>
  <line x1="300" y1="279" x2="321" y2="300" stroke="#DC143C"/>
  <line x1="300" y1="280" x2="320" y2="300" stroke="#DC143C"/>
  <line x1="300" y1="281" x2="319" y2="300" stroke="#DC143C"/>
  <line x1="300" y1="282" x2="318" y2="300" stroke="#DC143C"/>
  <line x1="300" y1="283" x2="317" y2="300" stroke="#DC143C"/>
  <line x1="300" y1="284" x2="316" y2="300" stroke="#DC143C"/>
  <line x1="300" y1="285" x2="315" y2="300" stroke="#DC143C"/>
  <line x1="300" y1="286" x2="314" y2="300" stroke="#DC143C"/>
  <line x1="300" y1="287" x2="313" y2="300" stroke="#DC143C"/>
  <line x1="300" y1="288" x2="312" y2="300" stroke="#DC143C"/>
  <line x1="300" y1="289" x2="311" y2="300" stroke="#DC143C"/>
  <line x1="300" y1="290" x2="310" y2="300" stroke="#DC143C"/>
  <line x1="300" y1="291" x2="309" y2="300" stroke="#DC143C"/>
  <line x1="300" y1="292" x2="308" y2="300" stroke="#DC143C"/>
  <line x1="300" y1="293" x2="307" y2="300" stroke="#DC143C"/>
  <line x1="300" y1="294" x2="306" y2="300" stroke="#DC143C"/>
  <line x1="300" y1="295" x2="305" y2="300" stroke="#DC143C"/>
  <line x1="300" y1="296" x2="304" y2="300" stroke="#DC143C"/>
  <line x1="300" y1="297" x2="303" y2="300" stroke="#DC143C"/>
  <line x1="300" y1="298" x2="302" y2="300" stroke="#DC143C"/>
  <line x1="300" y1="299" x2="301" y2="300" stroke="#DC143C"/>
  
  <!-- 屋顶轮廓线 -->
  <line x1="200" y1="300" x2="300" y2="200" stroke="#8B0000"/>
  <line x1="300" y1="200" x2="400" y2="300" stroke="#8B0000"/>
  <line x1="200" y1="300" x2="400" y2="300" stroke="#8B0000"/>
  
  <!-- 窗户（黄色，像有灯光） -->
  <rect x="240" y="340" width="50" height="50" fill="#FFD700"/>
  <rect x="310" y="340" width="50" height="50" fill="#FFD700"/>
  
  <!-- 门 -->
  <rect x="270" y="400" width="60" height="50" fill="#654321"/>
  
  <!-- 树 -->
  <rect x="500" y="380" width="30" height="70" fill="#8B4513"/>
  <circle cx="515" cy="360" r="40" fill="#228B22"/>
  
  <!-- 草地 -->
  <rect x="0" y="450" width="800" height="150" fill="#90EE90"/>
  
  <!-- 云朵 -->
  <circle cx="150" cy="120" r="30" fill="#FFFFFF"/>
  <circle cx="180" cy="120" r="35" fill="#FFFFFF"/>
  <circle cx="210" cy="120" r="30" fill="#FFFFFF"/>
</svg>
