<?xml version="1.0" encoding="UTF-8"?>
<svg width="1000" height="750" xmlns="http://www.w3.org/2000/svg">
  <!-- 白色背景 -->
  <rect x="0" y="0" width="1000" height="750" fill="#F0F0F0"/>
  
  <!-- 左上大红块 -->
  <rect x="100" y="100" width="250" height="280" fill="#DD3333"/>
  
  <!-- 右上蓝块 -->
  <rect x="520" y="20" width="180" height="140" fill="#003399"/>
  
  <!-- 右上小黄块 -->
  <rect x="720" y="20" width="70" height="70" fill="#FFDD00"/>
  
  <!-- 中间黄块 -->
  <rect x="370" y="20" width="130" height="60" fill="#FFDD00"/>
  
  <!-- 中间黄块2 -->
  <rect x="370" y="100" width="130" height="60" fill="#FFDD00"/>
  
  <!-- 中间黄块3 -->
  <rect x="720" y="100" width="160" height="60" fill="#FFDD00"/>
  
  <!-- 中间红块 -->
  <rect x="520" y="180" width="180" height="140" fill="#DD3333"/>
  
  <!-- 右侧黑块 -->
  <rect x="820" y="240" width="160" height="140" fill="#000000"/>
  
  <!-- 右侧大黄块 -->
  <rect x="900" y="100" width="80" height="550" fill="#FFDD00"/>
  
  <!-- 左下黑块 -->
  <rect x="100" y="400" width="140" height="140" fill="#000000"/>
  
  <!-- 左下黄块 -->
  <rect x="20" y="560" width="70" height="170" fill="#FFDD00"/>
  
  <!-- 中下蓝块 -->
  <rect x="260" y="560" width="180" height="120" fill="#003399"/>
  
  <!-- 右下大蓝块 -->
  <rect x="560" y="400" width="320" height="330" fill="#003399"/>
  
  <!-- 下方红块 -->
  <rect x="360" y="640" width="180" height="90" fill="#DD3333"/>
  
  <!-- 下方小黄块 -->
  <rect x="260" y="700" width="60" height="30" fill="#FFDD00"/>
  
  <!-- 下方小黄块2 -->
  <rect x="460" y="560" width="80" height="60" fill="#FFDD00"/>
  
  <!-- 黑色粗线（水平） -->
  <rect x="0" y="18" width="1000" height="4" fill="#000000"/>
  <rect x="0" y="98" width="1000" height="4" fill="#000000"/>
  <rect x="0" y="178" width="1000" height="4" fill="#000000"/>
  <rect x="0" y="238" width="1000" height="4" fill="#000000"/>
  <rect x="0" y="318" width="1000" height="4" fill="#000000"/>
  <rect x="0" y="398" width="1000" height="4" fill="#000000"/>
  <rect x="0" y="558" width="1000" height="4" fill="#000000"/>
  <rect x="0" y="638" width="1000" height="4" fill="#000000"/>
  <rect x="0" y="698" width="1000" height="4" fill="#000000"/>
  
  <!-- 黑色粗线（垂直） -->
  <rect x="18" y="0" width="4" height="750" fill="#000000"/>
  <rect x="98" y="0" width="4" height="750" fill="#000000"/>
  <rect x="238" y="0" width="4" height="750" fill="#000000"/>
  <rect x="258" y="0" width="4" height="750" fill="#000000"/>
  <rect x="348" y="0" width="4" height="750" fill="#000000"/>
  <rect x="368" y="0" width="4" height="750" fill="#000000"/>
  <rect x="458" y="0" width="4" height="750" fill="#000000"/>
  <rect x="518" y="0" width="4" height="750" fill="#000000"/>
  <rect x="538" y="0" width="4" height="750" fill="#000000"/>
  <rect x="698" y="0" width="4" height="750" fill="#000000"/>
  <rect x="718" y="0" width="4" height="750" fill="#000000"/>
  <rect x="818" y="0" width="4" height="750" fill="#000000"/>
  <rect x="878" y="0" width="4" height="750" fill="#000000"/>
  <rect x="898" y="0" width="4" height="750" fill="#000000"/>
</svg>
